<svg width="363" height="404" viewBox="0 0 363 404" fill="none" xmlns="http://www.w3.org/2000/svg">
<g filter="url(#filter0_f_165_203)">
<path d="M298.314 171.481C285.395 165.419 267.488 153.667 250.987 130.905C234.487 108.143 225.917 83.525 221.44 65.7112C220.161 60.7629 215.045 60.7629 213.893 65.7112C209.417 83.525 200.847 108.143 184.346 130.905C167.846 153.543 149.939 165.295 137.02 171.481C133.438 173.212 133.438 180.264 137.02 181.872C161.834 193.624 177.823 213.417 184.346 222.448C200.847 245.21 209.417 269.828 213.893 287.641C215.173 292.59 220.289 292.59 221.44 287.641C225.917 269.828 234.487 245.21 250.987 222.448C257.639 213.417 273.5 193.624 298.314 181.872C301.896 180.264 301.896 173.212 298.314 171.481Z" fill="#FF4F5E"/>
<path d="M298.314 171.481C285.395 165.419 267.488 153.667 250.987 130.905C234.487 108.143 225.917 83.525 221.44 65.7112C220.161 60.7629 215.045 60.7629 213.893 65.7112C209.417 83.525 200.847 108.143 184.346 130.905C167.846 153.543 149.939 165.295 137.02 171.481C133.438 173.212 133.438 180.264 137.02 181.872C161.834 193.624 177.823 213.417 184.346 222.448C200.847 245.21 209.417 269.828 213.893 287.641C215.173 292.59 220.289 292.59 221.44 287.641C225.917 269.828 234.487 245.21 250.987 222.448C257.639 213.417 273.5 193.624 298.314 181.872C301.896 180.264 301.896 173.212 298.314 171.481Z" stroke="#333333" stroke-width="3" stroke-miterlimit="10"/>
<path d="M144.438 288.755C137.915 285.662 128.961 279.724 120.647 268.343C112.333 256.962 108.112 244.591 105.809 235.561C105.17 233.087 102.612 233.087 101.972 235.561C99.6696 244.468 95.4486 256.838 87.1344 268.343C78.8203 279.848 69.8665 285.662 63.3431 288.755C61.5523 289.621 61.5523 293.084 63.3431 293.95C75.8782 299.888 83.8088 309.785 87.1344 314.362C95.4486 325.743 99.6696 338.114 101.972 347.144C102.612 349.619 105.17 349.619 105.809 347.144C108.112 338.237 112.333 325.867 120.647 314.362C123.972 309.785 131.903 299.888 144.438 293.95C146.229 293.084 146.229 289.621 144.438 288.755Z" fill="#FF4F5E"/>
<path d="M144.438 288.755C137.915 285.662 128.961 279.724 120.647 268.343C112.333 256.962 108.112 244.591 105.809 235.561C105.17 233.087 102.612 233.087 101.972 235.561C99.6696 244.468 95.4486 256.838 87.1344 268.343C78.8203 279.848 69.8665 285.662 63.3431 288.755C61.5523 289.621 61.5523 293.084 63.3431 293.95C75.8782 299.888 83.8088 309.785 87.1344 314.362C95.4486 325.743 99.6696 338.114 101.972 347.144C102.612 349.619 105.17 349.619 105.809 347.144C108.112 338.237 112.333 325.867 120.647 314.362C123.972 309.785 131.903 299.888 144.438 293.95C146.229 293.084 146.229 289.621 144.438 288.755Z" stroke="#333333" stroke-width="3" stroke-miterlimit="10"/>
<path d="M298.314 171.481C285.395 165.419 267.488 153.667 250.987 130.905C234.487 108.143 225.917 83.525 221.44 65.7112C220.161 60.7629 215.045 60.7629 213.893 65.7112C209.417 83.525 200.847 108.143 184.346 130.905C167.846 153.543 149.939 165.295 137.02 171.481C133.438 173.212 133.438 180.264 137.02 181.872C161.834 193.624 177.823 213.417 184.346 222.448C200.847 245.21 209.417 269.828 213.893 287.641C215.173 292.59 220.289 292.59 221.44 287.641C225.917 269.828 234.487 245.21 250.987 222.448C257.639 213.417 273.5 193.624 298.314 181.872C301.896 180.264 301.896 173.212 298.314 171.481Z" fill="#60BEE0" stroke="#333333" stroke-width="3" stroke-miterlimit="10"/>
<path d="M144.438 288.755C137.915 285.662 128.961 279.724 120.647 268.343C112.333 256.962 108.112 244.591 105.809 235.561C105.17 233.087 102.612 233.087 101.972 235.561C99.6696 244.468 95.4486 256.838 87.1344 268.343C78.8203 279.848 69.8665 285.662 63.3431 288.755C61.5523 289.621 61.5523 293.084 63.3431 293.95C75.8782 299.888 83.8088 309.785 87.1344 314.362C95.4486 325.743 99.6696 338.114 101.972 347.144C102.612 349.619 105.17 349.619 105.809 347.144C108.112 338.237 112.333 325.867 120.647 314.362C123.972 309.785 131.903 299.888 144.438 293.95C146.229 293.084 146.229 289.621 144.438 288.755Z" fill="#60BEE0" stroke="#333333" stroke-width="3" stroke-miterlimit="10"/>
</g>
<defs>
<filter id="filter0_f_165_203" x="0.5" y="0.5" width="362" height="410" filterUnits="userSpaceOnUse" color-interpolation-filters="sRGB">
<feFlood flood-opacity="0" result="BackgroundImageFix"/>
<feBlend mode="normal" in="SourceGraphic" in2="BackgroundImageFix" result="shape"/>
<feGaussianBlur stdDeviation="30" result="effect1_foregroundBlur_165_203"/>
</filter>
</defs>
</svg>
