<svg width="515" height="725" viewBox="0 0 515 725" fill="none" xmlns="http://www.w3.org/2000/svg">
<g filter="url(#filter0_f_165_191)">
<path d="M446.998 252.924C418.134 238.921 378.123 211.771 341.256 159.185C304.389 106.6 285.241 49.7275 275.238 8.57371C272.381 -2.8579 260.949 -2.8579 258.377 8.57371C248.374 49.7275 229.226 106.6 192.359 159.185C155.492 211.485 115.482 238.635 86.6168 252.924C78.6147 256.926 78.6147 273.216 86.6168 276.931C142.06 304.081 177.784 349.807 192.359 370.67C229.226 423.255 248.374 480.128 258.377 521.282C261.235 532.713 272.666 532.713 275.238 521.282C285.241 480.128 304.389 423.255 341.256 370.67C356.117 349.807 391.555 304.081 446.998 276.931C455.001 273.216 455.001 256.926 446.998 252.924Z" fill="#FF4F5E"/>
<path d="M446.998 252.924C418.134 238.921 378.123 211.771 341.256 159.185C304.389 106.6 285.241 49.7275 275.238 8.57371C272.381 -2.8579 260.949 -2.8579 258.377 8.57371C248.374 49.7275 229.226 106.6 192.359 159.185C155.492 211.485 115.482 238.635 86.6168 252.924C78.6147 256.926 78.6147 273.216 86.6168 276.931C142.06 304.081 177.784 349.807 192.359 370.67C229.226 423.255 248.374 480.128 258.377 521.282C261.235 532.713 272.666 532.713 275.238 521.282C285.241 480.128 304.389 423.255 341.256 370.67C356.117 349.807 391.555 304.081 446.998 276.931C455.001 273.216 455.001 256.926 446.998 252.924Z" stroke="#333333" stroke-width="3" stroke-miterlimit="10"/>
<path d="M103.192 523.854C88.6166 516.709 68.6114 502.991 50.035 476.698C31.4586 450.406 22.0276 421.826 16.8834 400.964C15.4544 395.248 9.73863 395.248 8.30968 400.964C3.16546 421.541 -6.26556 450.12 -24.8419 476.698C-43.4183 503.277 -63.4239 516.709 -77.9992 523.854C-82.0003 525.854 -82.0003 533.856 -77.9992 535.857C-49.9917 549.575 -32.2725 572.438 -24.8419 583.012C-6.26556 609.305 3.16546 637.884 8.30968 658.747C9.73863 664.463 15.4544 664.463 16.8834 658.747C22.0276 638.17 31.4586 609.591 50.035 583.012C57.4655 572.438 75.1845 549.575 103.192 535.857C107.193 533.856 107.193 525.854 103.192 523.854Z" fill="#FF4F5E"/>
<path d="M103.192 523.854C88.6166 516.709 68.6114 502.991 50.035 476.698C31.4586 450.406 22.0276 421.826 16.8834 400.964C15.4544 395.248 9.73864 395.248 8.30968 400.964C3.16546 421.541 -6.26555 450.12 -24.8419 476.698C-43.4183 503.277 -63.4239 516.709 -77.9992 523.854C-82.0003 525.854 -82.0003 533.856 -77.9992 535.857C-49.9917 549.575 -32.2725 572.438 -24.8419 583.012C-6.26555 609.305 3.16546 637.884 8.30968 658.747C9.73864 664.463 15.4544 664.463 16.8834 658.747C22.0276 638.17 31.4586 609.591 50.035 583.012C57.4655 572.438 75.1845 549.575 103.192 535.857C107.193 533.856 107.193 525.854 103.192 523.854Z" stroke="#333333" stroke-width="3" stroke-miterlimit="10"/>
<path d="M446.998 252.924C418.134 238.921 378.123 211.771 341.256 159.185C304.389 106.6 285.241 49.7275 275.238 8.57371C272.381 -2.8579 260.949 -2.8579 258.377 8.57371C248.374 49.7275 229.226 106.6 192.359 159.185C155.492 211.485 115.482 238.635 86.6168 252.924C78.6147 256.926 78.6147 273.216 86.6168 276.931C142.06 304.081 177.784 349.807 192.359 370.67C229.226 423.255 248.374 480.128 258.377 521.282C261.235 532.713 272.666 532.713 275.238 521.282C285.241 480.128 304.389 423.255 341.256 370.67C356.117 349.807 391.555 304.081 446.998 276.931C455.001 273.216 455.001 256.926 446.998 252.924Z" fill="#F3A3A6" stroke="#333333" stroke-width="3" stroke-miterlimit="10"/>
<path d="M103.192 523.854C88.6166 516.709 68.6114 502.991 50.035 476.698C31.4586 450.406 22.0276 421.826 16.8834 400.964C15.4544 395.248 9.73863 395.248 8.30968 400.964C3.16546 421.541 -6.26556 450.12 -24.8419 476.698C-43.4183 503.277 -63.4239 516.709 -77.9992 523.854C-82.0003 525.854 -82.0003 533.856 -77.9992 535.857C-49.9917 549.575 -32.2725 572.438 -24.8419 583.012C-6.26556 609.305 3.16546 637.884 8.30968 658.747C9.73863 664.463 15.4544 664.463 16.8834 658.747C22.0276 638.17 31.4586 609.591 50.035 583.012C57.4655 572.438 75.1845 549.575 103.192 535.857C107.193 533.856 107.193 525.854 103.192 523.854Z" fill="#F3A3A6" stroke="#333333" stroke-width="3" stroke-miterlimit="10"/>
</g>
<defs>
<filter id="filter0_f_165_191" x="-142.5" y="-61.5" width="657" height="786.034" filterUnits="userSpaceOnUse" color-interpolation-filters="sRGB">
<feFlood flood-opacity="0" result="BackgroundImageFix"/>
<feBlend mode="normal" in="SourceGraphic" in2="BackgroundImageFix" result="shape"/>
<feGaussianBlur stdDeviation="30" result="effect1_foregroundBlur_165_191"/>
</filter>
</defs>
</svg>
